<svg width="24" height="24" viewBox="0 0 24 24" fill="none" xmlns="http://www.w3.org/2000/svg">
<path d="M5.24977 20.5001H18.7478C18.939 20.4984 19.1237 20.5699 19.2641 20.6999C19.4044 20.8299 19.4897 21.0086 19.5026 21.1995C19.5155 21.3903 19.455 21.5789 19.3335 21.7266C19.2119 21.8743 19.0385 21.97 18.8488 21.9941L18.7478 22.0001H5.24977C5.05975 22 4.87683 21.9278 4.73798 21.7981C4.59913 21.6684 4.5147 21.4908 4.50175 21.3012C4.48879 21.1116 4.54829 20.9242 4.6682 20.7768C4.78812 20.6294 4.95952 20.533 5.14777 20.5071L5.24977 20.5001ZM11.8828 2.00309L11.9998 1.99609C12.2447 1.99613 12.4811 2.08605 12.6641 2.24881C12.8472 2.41157 12.9641 2.63584 12.9928 2.87909L12.9998 2.99609V15.5861L16.2938 12.2931C16.466 12.1209 16.6951 12.0175 16.9381 12.0022C17.1811 11.9869 17.4214 12.0608 17.6138 12.2101L17.7078 12.2931C17.8799 12.4653 17.9834 12.6944 17.9987 12.9374C18.0139 13.1804 17.94 13.4207 17.7908 13.6131L17.7078 13.7081L12.7108 18.7041C12.5387 18.8764 12.3097 18.98 12.0666 18.9955C11.8236 19.011 11.5833 18.9372 11.3908 18.7881L11.2968 18.7051L6.29277 13.7081C6.11152 13.5286 6.00574 13.2865 5.99709 13.0315C5.98844 12.7766 6.07757 12.5279 6.24624 12.3365C6.41491 12.1451 6.65036 12.0254 6.9044 12.0019C7.15843 11.9784 7.41185 12.0529 7.61277 12.2101L7.70677 12.2931L10.9998 15.5801V2.99609C10.9998 2.75116 11.0897 2.51476 11.2525 2.33172C11.4152 2.14869 11.6395 2.03175 11.8828 2.00309Z" fill="#6F758B"/>
</svg>
