<svg width="11" height="12" viewBox="0 0 11 12" fill="none" xmlns="http://www.w3.org/2000/svg">
<path d="M6.18231 11.3333V0.666667C6.18231 0.298477 5.8783 2.47154e-07 5.50328 2.47154e-07C5.12827 2.47154e-07 4.82426 0.298477 4.82426 0.666667V11.3333C4.82426 11.7015 5.12827 12 5.50328 12C5.8783 12 6.18231 11.7015 6.18231 11.3333Z" fill="#92929D"/>
<path d="M5.49724 1.67906L9.74578 6.43936C9.99293 6.71628 10.4219 6.74406 10.704 6.50141C10.986 6.25876 11.0143 5.83756 10.7672 5.56064L6.00722 0.22731C5.73647 -0.0760547 5.25549 -0.0757209 4.98518 0.228018L0.238746 5.56135C-0.00800491 5.83861 0.0208971 6.25977 0.303301 6.50203C0.585704 6.74429 1.01467 6.71591 1.26142 6.43865L5.49724 1.67906Z" fill="#92929D"/>
</svg>
