<svg width="25" height="24" viewBox="0 0 25 24" fill="none" xmlns="http://www.w3.org/2000/svg">
<path fill-rule="evenodd" clip-rule="evenodd" d="M12.3086 3C12.5738 3 12.8282 3.10536 13.0157 3.29289C13.2032 3.48043 13.3086 3.73478 13.3086 4V12C13.3086 12.2652 13.2032 12.5196 13.0157 12.7071C12.8282 12.8946 12.5738 13 12.3086 13H4.30859C4.04338 13 3.78902 12.8946 3.60149 12.7071C3.41395 12.5196 3.30859 12.2652 3.30859 12C3.30859 11.7348 3.41395 11.4804 3.60149 11.2929C3.78902 11.1054 4.04338 11 4.30859 11H11.3086V4C11.3086 3.73478 11.414 3.48043 11.6015 3.29289C11.789 3.10536 12.0434 3 12.3086 3Z" fill="#6F758B"/>
<path fill-rule="evenodd" clip-rule="evenodd" d="M11.3086 12C11.3086 11.7348 11.414 11.4804 11.6015 11.2929C11.789 11.1054 12.0434 11 12.3086 11H20.3086C20.5738 11 20.8282 11.1054 21.0157 11.2929C21.2032 11.4804 21.3086 11.7348 21.3086 12C21.3086 12.2652 21.2032 12.5196 21.0157 12.7071C20.8282 12.8946 20.5738 13 20.3086 13H13.3086V20C13.3086 20.2652 13.2032 20.5196 13.0157 20.7071C12.8282 20.8946 12.5738 21 12.3086 21C12.0434 21 11.789 20.8946 11.6015 20.7071C11.414 20.5196 11.3086 20.2652 11.3086 20V12Z" fill="#6F758B"/>
</svg>
