<svg width="14" height="20" viewBox="0 0 14 20" fill="none" xmlns="http://www.w3.org/2000/svg">
<path d="M13.7889 6.38711C13.9443 6.5881 14.0174 6.84071 13.9933 7.09363C13.9692 7.34655 13.8498 7.58082 13.6592 7.74886C13.4686 7.91689 13.2212 8.00609 12.9673 7.99833C12.7133 7.99058 12.4719 7.88645 12.2919 7.70711L6.99891 2.41411L1.70591 7.70711L1.61191 7.79011C1.41092 7.94552 1.15831 8.0186 0.905383 7.9945C0.65246 7.97041 0.418191 7.85095 0.250157 7.66038C0.0821233 7.46982 -0.00707455 7.22244 0.000680046 6.96849C0.00843464 6.71454 0.11256 6.47306 0.291908 6.29311L6.29191 0.293105L6.38591 0.210105C6.57831 0.0608542 6.81856 -0.0130648 7.06159 0.00221635C7.30462 0.0174975 7.53371 0.120929 7.70591 0.293105L13.7059 6.29311L13.7889 6.38711ZM0.208908 13.6131C0.0534964 13.4121 -0.0195846 13.1595 0.00450905 12.9066C0.0286027 12.6537 0.148064 12.4194 0.338629 12.2514C0.529195 12.0833 0.776575 11.9941 1.03052 12.0019C1.28447 12.0096 1.52595 12.1138 1.70591 12.2931L6.99891 17.5861L12.2919 12.2931L12.3859 12.2101C12.5869 12.0547 12.8395 11.9816 13.0924 12.0057C13.3454 12.0298 13.5796 12.1493 13.7477 12.3398C13.9157 12.5304 14.0049 12.7778 13.9971 13.0317C13.9894 13.2857 13.8853 13.5271 13.7059 13.7071L7.70591 19.7071L7.61191 19.7901C7.4195 19.9394 7.17925 20.0133 6.93623 19.998C6.6932 19.9827 6.4641 19.8793 6.29191 19.7071L0.291908 13.7071L0.208908 13.6131Z" fill="#6F758B"/>
</svg>
