<svg width="18" height="21" viewBox="0 0 18 21" fill="none" xmlns="http://www.w3.org/2000/svg">
<path d="M8.98806 0.996113C10.4351 0.996113 11.7881 1.40311 12.9351 2.11111C12.5892 2.48023 12.3275 2.92001 12.1681 3.40011C11.2136 2.80708 10.1118 2.49387 8.98806 2.49611C8.19925 2.49387 7.41776 2.64741 6.68842 2.94791C5.95908 3.24841 5.29625 3.68996 4.73796 4.24723C4.17967 4.80449 3.73691 5.46651 3.43507 6.1953C3.13324 6.92408 2.97827 7.7053 2.97907 8.49411V12.9031L1.63407 15.9961H16.3501L14.9961 12.9041V8.50711L14.9921 8.28211C14.9882 8.17429 14.9816 8.06658 14.9721 7.95911C15.473 8.03412 15.9842 8.0007 16.4711 7.86111C16.4811 7.98811 16.4891 8.11511 16.4941 8.24311L16.4981 8.49411V12.5901L17.8801 15.7451C17.9639 15.9354 17.9989 16.1436 17.9818 16.3509C17.9646 16.5581 17.896 16.7578 17.782 16.9317C17.668 17.1056 17.5123 17.2483 17.3291 17.3467C17.1459 17.4451 16.941 17.4961 16.7331 17.4951L11.9921 17.4971C11.9921 19.1531 10.6471 20.4971 8.98806 20.4971C8.22213 20.4979 7.48485 20.206 6.92714 19.681C6.36943 19.156 6.03348 18.4377 5.98807 17.6731L5.98307 17.4951H1.25207C1.04461 17.4955 0.84031 17.4443 0.657623 17.346C0.474936 17.2477 0.319614 17.1054 0.205685 16.932C0.091755 16.7587 0.0228059 16.5596 0.00506424 16.3529C-0.0126774 16.1462 0.0213473 15.9384 0.104065 15.7481L1.47707 12.5911V8.49411C1.47641 7.50827 1.67029 6.53198 2.04762 5.6212C2.42495 4.71042 2.97829 3.88305 3.67595 3.18651C4.37361 2.48997 5.20186 1.93794 6.11324 1.56207C7.02462 1.1862 8.00222 0.993876 8.98806 0.996113ZM10.4891 17.4951L7.48607 17.4971C7.47985 17.8868 7.62546 18.2637 7.89211 18.5479C8.15876 18.8322 8.52553 19.0016 8.91484 19.0203C9.30415 19.039 9.68547 18.9056 9.97814 18.6482C10.2708 18.3908 10.4519 18.0296 10.4831 17.6411L10.4891 17.4951ZM13.0331 4.05311C13.1373 3.47605 13.4414 2.9541 13.8919 2.57873C14.3424 2.20336 14.9107 1.99852 15.4971 2.00011C15.8256 1.99985 16.1509 2.06431 16.4545 2.18982C16.7581 2.31533 17.034 2.49942 17.2665 2.73158C17.4989 2.96374 17.6833 3.23942 17.8092 3.54287C17.9351 3.84632 17.9999 4.17159 18.0001 4.50011C18.0001 4.88984 17.909 5.27418 17.7341 5.62245C17.5592 5.97072 17.3053 6.27327 16.9927 6.50596C16.68 6.73864 16.3173 6.89501 15.9335 6.96258C15.5497 7.03014 15.1554 7.00704 14.7821 6.89511C14.1918 6.71978 13.687 6.33286 13.3643 5.80846C13.0415 5.28407 12.9236 4.65905 13.0331 4.05311Z" fill="#282842"/>
</svg>
