<svg width="20" height="20" viewBox="0 0 20 20" fill="none" xmlns="http://www.w3.org/2000/svg">
<path d="M0 2.25C0 1.65326 0.237053 1.08097 0.65901 0.65901C1.08097 0.237053 1.65326 0 2.25 0H12.25C12.8467 0 13.419 0.237053 13.841 0.65901C14.2629 1.08097 14.5 1.65326 14.5 2.25V3H16.05C16.92 3 17.712 3.501 18.084 4.287L19.784 7.874C19.926 8.175 20 8.504 20 8.837V14.25C20 14.8467 19.7629 15.419 19.341 15.841C18.919 16.2629 18.3467 16.5 17.75 16.5H15.959C15.842 17.2003 15.4805 17.8363 14.9387 18.2951C14.3969 18.7539 13.71 19.0057 13 19.0057C12.29 19.0057 11.6031 18.7539 11.0613 18.2951C10.5195 17.8363 10.158 17.2003 10.041 16.5H7.96C7.8431 17.2013 7.48091 17.8384 6.938 18.2975C6.39509 18.7566 5.70677 19.008 4.99576 19.0068C4.28475 19.0056 3.59727 18.7519 3.05592 18.2909C2.51457 17.83 2.15453 17.1917 2.04 16.49C1.48209 16.4377 0.963781 16.1791 0.58648 15.7648C0.209179 15.3505 4.44707e-05 14.8104 0 14.25V2.25ZM18.5 12.5H17.25C17.0511 12.5 16.8603 12.579 16.7197 12.7197C16.579 12.8603 16.5 13.0511 16.5 13.25C16.5 13.4489 16.579 13.6397 16.7197 13.7803C16.8603 13.921 17.0511 14 17.25 14H18.5V12.5ZM18.183 8L16.73 4.929C16.6692 4.80063 16.5732 4.69216 16.4532 4.61622C16.3332 4.54027 16.194 4.49997 16.052 4.5H14.5V8H18.183ZM5 17.5C5.39782 17.5 5.77936 17.342 6.06066 17.0607C6.34196 16.7794 6.5 16.3978 6.5 16C6.5 15.6022 6.34196 15.2206 6.06066 14.9393C5.77936 14.658 5.39782 14.5 5 14.5C4.60218 14.5 4.22064 14.658 3.93934 14.9393C3.65804 15.2206 3.5 15.6022 3.5 16C3.5 16.3978 3.65804 16.7794 3.93934 17.0607C4.22064 17.342 4.60218 17.5 5 17.5ZM14.5 16C14.5 15.6022 14.342 15.2206 14.0607 14.9393C13.7794 14.658 13.3978 14.5 13 14.5C12.6022 14.5 12.2206 14.658 11.9393 14.9393C11.658 15.2206 11.5 15.6022 11.5 16C11.5 16.3978 11.658 16.7794 11.9393 17.0607C12.2206 17.342 12.6022 17.5 13 17.5C13.3978 17.5 13.7794 17.342 14.0607 17.0607C14.342 16.7794 14.5 16.3978 14.5 16Z" fill="#6F758B"/>
</svg>
