<svg width="19" height="21" viewBox="0 0 19 21" fill="none" xmlns="http://www.w3.org/2000/svg">
<path d="M13.7549 11.9999C14.5349 11.9999 15.2209 12.3969 15.6249 12.9999H9.49991C8.83687 12.9999 8.20098 13.2633 7.73214 13.7321C7.2633 14.201 6.99991 14.8368 6.99991 15.4999V19.4999C6.99991 19.6609 7.01491 19.8199 7.04491 19.9719C4.10591 19.7859 1.90891 18.7219 0.514906 16.7649C0.182677 16.299 0.00404724 15.7411 0.00390625 15.1689V14.2489C0.00390625 13.6524 0.240854 13.0804 0.662623 12.6586C1.08439 12.2368 1.65643 11.9999 2.25291 11.9999H13.7549ZM7.99991 0.00488281C8.65652 0.0048828 9.30669 0.134211 9.91332 0.385485C10.52 0.636758 11.0711 1.00506 11.5354 1.46935C11.9997 1.93364 12.368 2.48484 12.6193 3.09147C12.8706 3.69809 12.9999 4.34827 12.9999 5.00488C12.9999 5.66149 12.8706 6.31167 12.6193 6.9183C12.368 7.52493 11.9997 8.07612 11.5354 8.54042C11.0711 9.00471 10.52 9.37301 9.91332 9.62428C9.30669 9.87555 8.65652 10.0049 7.99991 10.0049C6.67382 10.0049 5.40205 9.4781 4.46437 8.54042C3.52669 7.60273 2.99991 6.33097 2.99991 5.00488C2.99991 3.6788 3.52669 2.40703 4.46437 1.46935C5.40205 0.531667 6.67382 0.00488281 7.99991 0.00488281ZM7.99991 15.4999C7.99991 15.1021 8.15794 14.7205 8.43925 14.4392C8.72055 14.1579 9.10208 13.9999 9.49991 13.9999H17.4999C17.8977 13.9999 18.2793 14.1579 18.5606 14.4392C18.8419 14.7205 18.9999 15.1021 18.9999 15.4999V19.4999C18.9999 19.8977 18.8419 20.2792 18.5606 20.5605C18.2793 20.8418 17.8977 20.9999 17.4999 20.9999H9.49991C9.10208 20.9999 8.72055 20.8418 8.43925 20.5605C8.15794 20.2792 7.99991 19.8977 7.99991 19.4999V15.4999ZM17.9999 15.9999C17.7347 15.9999 17.4803 15.8945 17.2928 15.707C17.1053 15.5195 16.9999 15.2651 16.9999 14.9999H15.9999C15.9999 15.5303 16.2106 16.039 16.5857 16.4141C16.9608 16.7892 17.4695 16.9999 17.9999 16.9999V15.9999ZM17.9999 17.9999C17.4695 17.9999 16.9608 18.2106 16.5857 18.5857C16.2106 18.9607 15.9999 19.4694 15.9999 19.9999H16.9999C16.9999 19.7347 17.1053 19.4803 17.2928 19.2928C17.4803 19.1052 17.7347 18.9999 17.9999 18.9999V17.9999ZM9.99991 14.9999C9.99991 15.2651 9.89455 15.5195 9.70701 15.707C9.51948 15.8945 9.26512 15.9999 8.99991 15.9999V16.9999C9.53034 16.9999 10.039 16.7892 10.4141 16.4141C10.7892 16.039 10.9999 15.5303 10.9999 14.9999H9.99991ZM10.9999 19.9999C10.9999 19.4694 10.7892 18.9607 10.4141 18.5857C10.039 18.2106 9.53034 17.9999 8.99991 17.9999V18.9999C9.26512 18.9999 9.51948 19.1052 9.70701 19.2928C9.89455 19.4803 9.99991 19.7347 9.99991 19.9999H10.9999ZM15.2499 17.4999C15.2499 17.0358 15.0655 16.5906 14.7373 16.2624C14.4092 15.9343 13.964 15.7499 13.4999 15.7499C13.0358 15.7499 12.5907 15.9343 12.2625 16.2624C11.9343 16.5906 11.7499 17.0358 11.7499 17.4999C11.7499 17.964 11.9343 18.4091 12.2625 18.7373C12.5907 19.0655 13.0358 19.2499 13.4999 19.2499C13.964 19.2499 14.4092 19.0655 14.7373 18.7373C15.0655 18.4091 15.2499 17.964 15.2499 17.4999Z" fill="#6F758B"/>
</svg>
