<svg width="20" height="20" viewBox="0 0 20 20" fill="none" xmlns="http://www.w3.org/2000/svg">
<path d="M11.409 0.513052C10.5054 0.146691 9.49461 0.146691 8.591 0.513052L6.401 1.40105L15.993 5.13105L19.367 3.82805C19.2287 3.71327 19.0736 3.62051 18.907 3.55305L11.409 0.513052ZM20 5.19105L10.75 8.76505V19.6881C10.974 19.6431 11.194 19.5761 11.409 19.4891L18.907 16.4491C19.23 16.3182 19.5065 16.094 19.7013 15.805C19.896 15.516 20 15.1755 20 14.8271V5.19105ZM9.25 19.6881V8.76505L0 5.19105V14.8281C0.000197019 15.1763 0.104314 15.5166 0.299027 15.8054C0.49374 16.0942 0.770191 16.3183 1.093 16.4491L8.591 19.4891C8.806 19.5761 9.026 19.6411 9.25 19.6881ZM0.633 3.82805L10 7.44705L13.917 5.93305L4.374 2.22305L1.093 3.55305C0.923 3.62205 0.769 3.71505 0.633 3.82805Z" fill="#6F758B"/>
</svg>
