<svg width="17" height="20" viewBox="0 0 17 20" fill="none" xmlns="http://www.w3.org/2000/svg">
<path d="M13.7539 11.9999C14.0493 11.9999 14.3419 12.0581 14.6148 12.1712C14.8877 12.2843 15.1357 12.45 15.3445 12.659C15.5534 12.8679 15.719 13.1159 15.832 13.3889C15.945 13.6619 16.003 13.9545 16.0029 14.2499V15.1679C16.0026 15.741 15.8232 16.2997 15.4899 16.7659C13.9449 18.9299 11.4199 20.0009 7.99991 20.0009C4.57891 20.0009 2.05591 18.9289 0.513906 16.7649C0.182032 16.2989 0.0037554 15.741 0.00390635 15.1689V14.2489C0.00390611 13.6528 0.240579 13.081 0.661916 12.6593C1.08325 12.2376 1.65478 12.0004 2.25091 11.9999H13.7539ZM7.99991 0.00488281C8.65652 0.0048828 9.3067 0.134211 9.91332 0.385485C10.52 0.636758 11.0711 1.00506 11.5354 1.46935C11.9997 1.93364 12.368 2.48484 12.6193 3.09147C12.8706 3.69809 12.9999 4.34827 12.9999 5.00488C12.9999 5.66149 12.8706 6.31167 12.6193 6.9183C12.368 7.52493 11.9997 8.07612 11.5354 8.54042C11.0711 9.00471 10.52 9.37301 9.91332 9.62428C9.3067 9.87555 8.65652 10.0049 7.99991 10.0049C6.67382 10.0049 5.40205 9.4781 4.46437 8.54042C3.52669 7.60273 2.99991 6.33097 2.99991 5.00488C2.99991 3.6788 3.52669 2.40703 4.46437 1.46935C5.40205 0.531667 6.67382 0.00488281 7.99991 0.00488281Z" fill="#6F758B"/>
</svg>
