<svg width="13" height="15" viewBox="0 0 13 15" fill="none" xmlns="http://www.w3.org/2000/svg">
<path d="M1.28082 7.60916L6.58482 2.30516C6.84024 2.0498 7.14346 1.84725 7.47716 1.70908C7.81086 1.57091 8.1685 1.49982 8.52968 1.49986C8.89085 1.49991 9.24848 1.5711 9.58214 1.70935C9.9158 1.84761 10.219 2.05024 10.4743 2.30566C10.7297 2.56108 10.9322 2.86429 11.0704 3.19799C11.2086 3.53169 11.2797 3.88934 11.2796 4.25051C11.2796 4.61168 11.2084 4.96931 11.0701 5.30297C10.9319 5.63664 10.7292 5.9398 10.4738 6.19516L4.10982 12.5592C3.87524 12.7937 3.55708 12.9255 3.22532 12.9255C2.89357 12.9255 2.57541 12.7937 2.34082 12.5592C2.10624 12.3246 1.97445 12.0064 1.97445 11.6747C1.97445 11.3429 2.10624 11.0247 2.34082 10.7902L7.99782 5.13316C8.1303 4.99098 8.20243 4.80294 8.199 4.60863C8.19557 4.41433 8.11686 4.22895 7.97944 4.09153C7.84203 3.95412 7.65665 3.87541 7.46235 3.87198C7.26804 3.86855 7.08 3.94068 6.93782 4.07316L1.28082 9.73016C0.764977 10.246 0.475178 10.9456 0.475178 11.6752C0.475178 12.4047 0.764977 13.1043 1.28082 13.6202C1.79667 14.136 2.49631 14.4258 3.22582 14.4258C3.95534 14.4258 4.65498 14.136 5.17082 13.6202L11.5338 7.25516C12.3155 6.45503 12.7503 5.37898 12.7438 4.26041C12.7372 3.14183 12.29 2.07092 11.499 1.27995C10.7081 0.488985 9.63715 0.0417424 8.51857 0.0352284C7.39999 0.0287145 6.32395 0.463455 5.52382 1.24516L0.220823 6.54816C0.0883428 6.69033 0.0162199 6.87838 0.0196481 7.07268C0.0230763 7.26698 0.101788 7.45236 0.239201 7.58978C0.376614 7.72719 0.561999 7.8059 0.7563 7.80933C0.950602 7.81276 1.13865 7.74064 1.28082 7.60816V7.60916Z" fill="#6F758B"/>
</svg>
