<svg width="14" height="18" viewBox="0 0 14 18" fill="none" xmlns="http://www.w3.org/2000/svg">
<path d="M1.37481 1.91357H12.6231C12.7814 1.91332 12.9337 1.85301 13.0493 1.74484C13.1648 1.63667 13.235 1.48868 13.2457 1.33076C13.2564 1.17284 13.2067 1.01675 13.1068 0.893995C13.0069 0.771245 12.8641 0.690981 12.7073 0.669408L12.6231 0.663574H1.37481C1.21646 0.663623 1.06403 0.723778 0.948316 0.831885C0.832607 0.939991 0.762248 1.08799 0.751454 1.24597C0.740661 1.40396 0.790239 1.56015 0.89017 1.68299C0.990101 1.80583 1.13293 1.88616 1.28981 1.90774L1.37481 1.91357ZM6.90231 17.3286L6.99981 17.3336C7.20392 17.3335 7.40092 17.2586 7.55345 17.123C7.70598 16.9873 7.80343 16.8005 7.82731 16.5977L7.83314 16.5002V6.00857L10.5781 8.75274C10.7216 8.89622 10.9126 8.98241 11.1151 8.99515C11.3176 9.00788 11.5178 8.94628 11.6781 8.82191L11.7565 8.75274C11.9 8.60925 11.9862 8.41833 11.9989 8.21581C12.0116 8.01329 11.95 7.81308 11.8256 7.65274L11.7565 7.57441L7.59231 3.41024C7.44882 3.26676 7.2579 3.18057 7.05538 3.16783C6.85286 3.1551 6.65265 3.2167 6.49231 3.34107L6.41398 3.41024L2.24398 7.57441C2.09293 7.72403 2.00478 7.92572 1.99757 8.1382C1.99036 8.35068 2.06464 8.55788 2.2052 8.71739C2.34575 8.8769 2.54196 8.97666 2.75366 8.99624C2.96536 9.01583 3.17654 8.95376 3.34398 8.82274L3.42231 8.75357L6.16648 6.01274V16.5002C6.1663 16.7045 6.24114 16.9017 6.3768 17.0544C6.51245 17.2071 6.69946 17.3047 6.90231 17.3286Z" fill="#0062FF"/>
</svg>
